<svg stroke-miterlimit="10" viewBox="0 0 19.62 16.16" xmlns="http://www.w3.org/2000/svg" xmlns:vectornator="http://vectornator.io" clip-rule="evenodd" stroke-linecap="round" stroke-linejoin="round"><clipPath id="a"><path d="M0 0h19.62v16.16H0z"/></clipPath><g vectornator:layerName="Untitled"><g vectornator:layerName="Group 1" clip-path="url(#a)"><path d="M16.21 12.47h2.77c.22 0 .75.02.62.4l-.01.03c-.06.12-.15.21-.3.24l-.47.06a.34.34 0 0 0-.09.15l-.17.44c-.13.4-.08 1.69.45 1.68.88 0 .55.65.26.68-.18.02-.37 0-.56 0H1.84c-.16 0-.35.03-.51-.03a1.87 1.87 0 0 1 .27-3.64c.17-.02.35-.01.52-.01h14.1zm-8.8.68c-.14 0-.33-.03-.46 0-.18.47-.1 2.3.38 2.34h10.54l.19-.01c-.33-.7-.39-1.68.06-2.33-.35-.04-.72 0-1.07 0H7.4zm-5.72.01c-.48.1-.9.45-1 .95v.03c-.06.26.02.6.17.83l.06.09c.38.5.92.43 1.48.43h1.44l.9-.03a.48.48 0 0 1-.07-.13c-.24-.64-.46-1.5-.19-2.15l-2.79-.02zm3.48 0c-.26.65-.06 1.63.3 2.19.1.16.17.13.36.14l.6-.06v-.02a3.4 3.4 0 0 1-.15-2.24H5.17zM9.55 0c.4-.01.69.14 1.04.3l1.46.64 5.4 2.16c.3.11.58.24.88.34.29.1.34.24.34.51V7.8c0 .2.02.12.18.21.58.35.55 1.5.34 2.06-.12.29-.5 1.03-.77 1.21-.5.1-.93-.92-1.07-1.3-.23-.61-.3-1.53.31-1.95l.02-.01c.1-.07.2-.09.3-.15V4.55l-2.37.61c.05.18.08.37.11.55l.41 2.14c.12.52.2.93-.04 1.41-.86 1.37-4.1 1.8-5.65 1.86l-2.15-.06c-1.34-.13-3.67-.56-4.47-1.76-.3-.44-.18-.85-.07-1.33l.64-2.8-2.89-.96c-.37-.1-1.11-.32-.66-.87.52-.65 3.86-1.63 4.72-1.94L7.83.57C8.38.37 8.96.07 9.55 0zm5.37 5.35L12 6.43l-1.14.52c-1.3.55-1.67.14-2.89-.4L5.2 5.46c-.05-.02-.12-.06-.18-.05l-.66 2.94c-.05.26-.08.4.08.64l.1.12c.8.8 2.6 1.16 3.7 1.27.27.03.54.02.8.04l.3.02c.55.02 1.53.02 2.08-.06l1.18-.18c.74-.13 2.43-.59 2.89-1.27l.04-.08c.15-.27-.09-.94-.15-1.22l-.41-2.25c-.03-.03-.02-.02-.05-.02zM9.61.65c-.42.1-.81.28-1.21.43L2.4 3.25c-.21.09-.51.17-.7.32.24.05.45.13.68.2l4.97 1.78 1.1.48c1.05.49 1.22.7 2.28.21l.82-.38A22.73 22.73 0 0 1 15.1 4.6l1.5-.39-.45-.05-2.07-.07c-.18-.01-.36-.05-.55-.05L12.5 4c-.11 0-.22-.02-.32-.03L11 3.93c-.18 0-.36-.04-.54-.02-.27.28-.76.4-1.1.2l-.03-.02c-.95-.54.14-1.62.97-1.12.1.06.15.14.2.22l5.94.25c-.18-.04-.51-.21-.7-.29l-3.79-1.5-1.84-.81C9.95.77 9.78.69 9.6.66zm8.56 7.86a.4.4 0 0 0-.21.2l-.01.02c-.22.43.05 1.19.3 1.57l.08-.07c.25-.38.45-1.03.26-1.44-.07-.15-.22-.35-.42-.28z" vectornator:layerName="path"/><path d="M5.85 7.88a9 9 0 0 1 3.18.6c.21.08.54.14.71.3.3.26.01.55-.34.55-.23-.06-.45-.15-.67-.23l-.62-.18a7.77 7.77 0 0 0-1.63-.33h-.43c-.18 0-.41.03-.56-.11l-.01-.02c-.27-.27.07-.53.37-.58z" vectornator:layerName="path"/></g></g></svg>