<svg stroke-miterlimit="10" viewBox="0 0 20 14.4" xmlns="http://www.w3.org/2000/svg" xmlns:vectornator="http://vectornator.io" clip-rule="evenodd" stroke-linecap="round" stroke-linejoin="round"><defs><linearGradient gradientTransform="translate(0 -2.8)" gradientUnits="userSpaceOnUse" id="c" x1="0" x2="20" y1="10" y2="9.99"><stop offset="0" stop-color="#565edb"/><stop offset="1" stop-color="#0788e8"/></linearGradient></defs><clipPath id="a"><path d="M0 0h20v14.4H0z"/></clipPath><g vectornator:layerName="Untitled"><g vectornator:layerName="rect" clip-path="url(#a)"><clipPath clip-rule="nonzero" id="b"><path d="M0-2.8h20v20H0v-20z"/></clipPath><g clip-path="url(#b)"><path d="M14.8 0h3.16a1.86 1.86 0 0 1 2.03 1.55c.02.22 0 .45 0 .67v10.2c0 .15 0 .31-.02.47a1.83 1.83 0 0 1-1.56 1.5c-.21.02-.45 0-.67 0H2.32c-.97 0-1.72-.1-2.17-1.15a2.2 2.2 0 0 1-.15-.9V2.03C0 1.03.47.17 1.56.02c.17-.02.34-.01.5-.01H14.8zm2.75 13.27h.54c.62-.01.77-.4.77-.97V3.82l-.04-.86c-.11.1-.74.48-.87.55l-.01.01c-.06.06-.14.1-.2.13L10.9 8.1c-.4.25-.78.65-1.25.37L1.63 3.23c-.14-.1-.31-.24-.47-.3v9.39c0 .14-.03.3.02.44v.02c.1.27.35.47.64.48h15.73zm.16-10.98l1.07-.72c-.16-.4-.41-.42-.79-.43H2.44c-.56 0-.9-.05-1.27.43l8.8 5.73 7.74-5z" fill="url(#c)" vectornator:layerName="path"/></g></g></g></svg>