<svg width="20" height="20" viewBox="0 0 20 20" fill="none" xmlns="http://www.w3.org/2000/svg">
<g clip-path="url(#clip0_10_44)">
<path d="M14.791 2.80642L17.9565 2.80335C18.1371 2.80306 18.3325 2.79448 18.5097 2.83251C19.2419 2.98965 19.8914 3.591 19.9835 4.35343C20.0099 4.57306 19.9973 4.80364 19.9951 5.02474L19.9927 15.2114C19.9922 15.3699 19.9951 15.5334 19.9699 15.6902C19.8487 16.4472 19.1832 17.1094 18.4136 17.1873C18.1959 17.2093 17.9572 17.1894 17.7373 17.1893L16.7181 17.1889L2.31865 17.1871C1.34844 17.1876 0.601521 17.0838 0.152399 16.0365C0.0258028 15.7413 0.00406325 15.4585 0.00164308 15.1395L0.00012207 4.82881C0.000491818 3.82381 0.472332 2.97343 1.56243 2.82041C1.726 2.79743 1.89747 2.80604 2.06239 2.8057L14.791 2.80642ZM17.5495 16.0665L18.0913 16.0647C18.7085 16.0599 18.8579 15.676 18.8561 15.0966L18.8524 6.6199L18.8176 5.75785C18.7065 5.86566 18.0834 6.24112 17.9494 6.31322L17.9368 6.32482C17.8809 6.37503 17.8026 6.41432 17.739 6.45478L10.8966 10.8877C10.4932 11.1404 10.1219 11.543 9.64793 11.2586L1.62659 6.0286C1.48529 5.93432 1.31806 5.79108 1.15907 5.73238L1.15193 15.1169C1.15188 15.2558 1.13134 15.4287 1.17566 15.5605L1.18108 15.5771C1.27314 15.8487 1.53193 16.0486 1.81608 16.0606L17.5495 16.0665ZM17.7083 5.0907L18.7763 4.37419C18.6151 3.97894 18.3672 3.95104 17.9927 3.9439L15.3389 3.94079L2.43499 3.93982C1.87907 3.93982 1.54562 3.8923 1.16869 4.36663L9.97515 10.1022L17.7083 5.0907Z" fill="url(#paint0_linear_10_44)"/>
</g>
<defs>
<linearGradient id="paint0_linear_10_44" x1="-0.00428478" y1="9.9981" x2="19.9985" y2="9.98789" gradientUnits="userSpaceOnUse">
<stop stop-color="#565EDB"/>
<stop offset="1" stop-color="#0788E8"/>
</linearGradient>
<clipPath id="clip0_10_44">
<rect width="20" height="20" fill="white"/>
</clipPath>
</defs>
</svg>
