<svg width="21" height="21" fill="none" xmlns="http://www.w3.org/2000/svg"><g clip-path="url(#clip0_12_128)"><mask id="a" style="mask-type:luminance" maskUnits="userSpaceOnUse" x="0" y="0" width="21" height="21"><path d="M21 0H0v21h21V0z" fill="#fff"/></mask><g mask="url(#a)"><path d="M19.26 19.76H1.74a.56.56 0 0 1-.54-.57V12.3h3.9v1.02c0 .34.27.62.6.62.33 0 .6-.28.6-.62V12.3h8.4v1.02c0 .34.27.62.6.62.34 0 .6-.28.6-.62V12.3h3.9v6.9c0 .3-.24.56-.54.56zM1.74 4.85h17.52c.3 0 .54.25.54.56v5.65h-3.9v-.97a.61.61 0 0 0-.6-.62c-.33 0-.6.28-.6.62v.97H6.3v-.97a.61.61 0 0 0-.6-.62c-.33 0-.6.28-.6.62v.97H1.2V5.4c0-.31.24-.56.54-.56zm6.17-1.33c0-.82.43-1.53 1.05-1.93.34-.22.74-.35 1.16-.35h.76c1.22 0 2.2 1.03 2.2 2.28v.08H7.92v-.08zm11.35.08H14.3v-.08A3.47 3.47 0 0 0 10.89 0h-.77a3.42 3.42 0 0 0-3.4 3.6H1.73C.78 3.6 0 4.41 0 5.4v13.8c0 .99.78 1.8 1.74 1.8h17.52c.96 0 1.74-.81 1.74-1.8V5.4c0-.99-.78-1.8-1.74-1.8z" fill="#000"/></g></g><defs><clipPath id="clip0_12_128"><path fill="#fff" d="M0 0h21v21H0z"/></clipPath></defs></svg>