<svg stroke-miterlimit="10" viewBox="0 0 24.4 15.81" xmlns="http://www.w3.org/2000/svg" xmlns:vectornator="http://vectornator.io" clip-rule="evenodd" stroke-linecap="round" stroke-linejoin="round"><clipPath id="a"><path d="M0 0h24.4v15.81H0z"/></clipPath><g clip-path="url(#a)" vectornator:layerName="Untitled"><path d="M21.24 15.63c-1.84-.37-3.68-.89-5.56-.89-.9 0-1.16.12-1.93.57-.97.58-2.09.53-3.07-.01a3.22 3.22 0 0 0-2.15-.56c-1.55.02-3.09.4-4.6.75-.45.1-.9.24-1.36.3-1.33.17-2.3-.73-2.49-2-.02-.15-.01-.29-.02-.43L0 12.9c-.02-.21 0-.44 0-.65V8.7c0-.19.04-.36.04-.55l.02-.7c0-.11.03-.23.04-.35l.12-1.83c.14-1.6-.03-3.2 1.8-3.83l.23-.07c.13-.03.1-.1.15-.23C2.71.37 3.38.1 4.18.01h.6l.8.02c.26.01.51.05.76.09l.6.1c2.02.44 3.43 1.12 4.95 2.46.29.25.24.4.47.17A10.62 10.62 0 0 1 19.9 0c.94 0 1.69.12 2.11 1.1.13.28.1.21.4.31 1.3.44 1.55 1.22 1.68 2.54l.1 1.07.08 1.74.06 1.2.03.3.04.7c.02.23 0 .47 0 .71v2.53c0 .72.02 1.47-.22 2.16-.47 1.33-1.74 1.5-2.93 1.26zM4.17.7c-1.08.12-1.1.55-1.3 1.48-.23 1.05-.39 2.1-.48 3.18L2.36 6c-.01.12-.04.23-.04.34L2.3 8.92c0 .17 0 .34.02.5l.01.08c.07.26.04.58.05.85l.04.42c.08 1.29.52 1.27 1.57.77 1.43-.69 3.24-.86 4.82-.79l.7.06c.36.05 2.1.4 2.35.64V3.8c0-.21.02-.21-.15-.35l-.2-.18C9.38 1.37 7.04.65 4.17.7zm15.34 0c-2.46.1-4.73.88-6.57 2.53-.12.12-.27.22-.39.34l.02 7.87c.3-.22 1.95-.58 2.32-.62l.72-.06h1.36a9.4 9.4 0 0 1 3.41.74c.25.12.5.29.78.34.9.15.82-.86.86-1.43l.06-1.13c0-.11.03-.22.04-.34V7.61c0-.33.02-.66 0-.99l-.13-1.85c-.1-.94-.26-1.87-.48-2.79C21.27.96 21.17.7 19.94.7h-.43zm2.72 1.37c.25 1.07.4 2.15.5 3.24l.07 1.15v2.56l-.1 1.41c-.05.87-.04 1.81-1.07 2.05-.61.15-1.06-.15-1.6-.38a10.38 10.38 0 0 0-6.54-.27l-.59.22c-.44.19-.59.37-1.05.16l-.97-.4a8.37 8.37 0 0 0-2.68-.37l-1.47.06a8 8 0 0 0-1.81.4l-.65.25c-.67.3-1.19.62-1.9.17-.48-.3-.6-.88-.64-1.4l-.1-1.7V6.32c0-.13.03-.26.04-.4l.03-.62c.1-1.06.25-2.13.47-3.17-.8.23-1 .78-1.1 1.52l-.31 4.1-.02.83c0 .18-.03.34-.04.52v2.73c0 .38-.05.7.2 1.02.98 1.28 2.95.32 4.2 0 1.9-.48 3.88-.67 5.78-.12l.64.22c.55.2.8.2 1.35 0l.56-.19a9.18 9.18 0 0 1 3.69-.3l.94.13c.73.13 1.45.31 2.16.5.47.14.97.32 1.46.37.72.08 1.93-.13 2.02-1.05v-.54l-.04-3.96c0-.12-.03-.23-.03-.34L23.6 7c0-.12-.03-.24-.04-.37l-.14-2.24c-.08-1-.06-1.94-1.2-2.32zM8.08 13.1c-.88.02-1.76.17-2.62.39l-1.5.41c-1.1.31-2.2.5-3.19-.24.14.95.76 1.6 1.8 1.44.22-.04.45-.1.68-.16l.88-.2c1.27-.3 2.59-.6 3.9-.67h.65c.6 0 1.05-.01 1.6.23.34.14.63.36.95.51.73.35 1.6.26 2.28-.16.95-.57 1.28-.6 2.43-.59 1.5 0 2.98.37 4.44.67l.88.19c1.21.25 2.14.16 2.39-1.23-1.12.8-2.3.44-3.49.12-2.22-.6-4.51-1.1-6.75-.32-.53.19-.97.42-1.56.3h-.03c-.35-.07-.7-.26-1.05-.37a7.58 7.58 0 0 0-2.69-.32z" vectornator:layerName="path"/><path d="M9.99 5.68c-.18-.03-.32-.21-.45-.32a5.29 5.29 0 0 0-3.4-1.37h-.4c-.61 0-.62-.6-.05-.7a6.13 6.13 0 0 1 3.5.93c.24.15 1.14.79 1.18 1.05.04.23-.18.38-.38.4zM14.76 5.43c-.08.09-.2.23-.32.25-.38.06-.53-.37-.29-.63a6.35 6.35 0 0 1 4.02-1.75h.46c.68-.01.59.67.12.69-.27 0-.54-.01-.82.02-1.17.12-2.3.6-3.17 1.42zM9.72 8.6a6.27 6.27 0 0 0-3.04-1.04h-1.1c-.15 0-.4.05-.51-.05l-.02-.02c-.2-.17-.22-.43.04-.57l.01-.01c.14-.08.4-.05.56-.05 1.55 0 2.58.1 4.01.88.19.1.6.3.66.52.09.35-.27.57-.6.34zM15.19 8.29c-.26.13-.52.36-.79.45-.29-.07-.48-.35-.25-.61.65-.73 2.9-1.2 3.8-1.26h.9c.13 0 .35-.03.47.03.25.15.25.58-.05.65-.11.03-.25 0-.37 0h-.8c-.17 0-.34 0-.5.03l-.9.16c-.53.12-1.03.3-1.51.54z" vectornator:layerName="path"/></g></svg>