<svg width="20" height="20" viewBox="0 0 20 20" fill="none" xmlns="http://www.w3.org/2000/svg">
<g clip-path="url(#clip0_11_54)">
<path d="M18.2949 1.81379C18.2949 1.81379 20.145 1.09237 19.9909 2.84441C19.9395 3.56585 19.477 6.09085 19.1172 8.82199L17.8838 16.9123C17.8838 16.9123 17.781 18.0975 16.8559 18.3037C15.9308 18.5098 14.5432 17.5822 14.2862 17.3761C14.0807 17.2215 10.4318 14.9026 9.14695 13.7689C8.78719 13.4598 8.37605 12.8414 9.19833 12.1199L14.5946 6.9669C15.2113 6.34852 15.828 4.90566 13.2584 6.65771L6.06338 11.5531C6.06338 11.5531 5.2411 12.0684 3.69933 11.6047L0.358772 10.574C0.358772 10.574 -0.874662 9.80109 1.23245 9.02809C6.37176 6.60614 12.6931 4.13266 18.2949 1.81379Z" fill="#4E64D5"/>
</g>
<defs>
<clipPath id="clip0_11_54">
<rect width="20" height="20" fill="white"/>
</clipPath>
</defs>
</svg>
