<svg stroke-miterlimit="10" viewBox="0 0 42 35" xmlns="http://www.w3.org/2000/svg" xmlns:vectornator="http://vectornator.io" clip-rule="evenodd" stroke-linecap="round" stroke-linejoin="round"><clipPath id="a"><path d="M0 0h42v35H0z"/></clipPath><g clip-path="url(#a)" vectornator:layerName="Untitled"><path d="M38.4.3s3.9-1.5 3.6 2.2C41.9 4 40.9 9.3 40 15l-2.5 17s-.3 2.5-2.2 3c-2 .4-4.9-1.6-5.4-2-.4-.3-8-5.2-10.8-7.6-.7-.6-1.6-2 .1-3.4L30.6 11c1.3-1.3 2.6-4.3-2.8-.6l-15 10.3s-1.8 1-5 0l-7-2s-2.6-1.7 1.8-3.3C13.4 10.4 26.6 5.2 38.4.3z" fill="#4e64d5" vectornator:layerName="path"/></g></svg>