<svg width="20" height="20" viewBox="0 0 20 20" fill="none" xmlns="http://www.w3.org/2000/svg">
<g clip-path="url(#clip0_17_215)">
<path d="M0 5.10851V0H20V5.20844V5.39696V14.8671V15.1251V20H0V5.36953V5.10851ZM0 5.36953V20H20V15.1251C19.9676 15.1992 19.9416 15.2711 19.8948 15.3386C19.7867 15.4942 19.4975 15.5969 19.3166 15.6297C19.1339 15.6627 18.9496 15.6554 18.7646 15.6641L18.4302 15.6903L17.1757 15.6904L16.5576 15.6936C16.3308 15.6964 16.1095 15.7074 15.8837 15.6712C15.7278 15.6461 15.5796 15.5773 15.4402 15.5056C15.3344 15.4511 15.2259 15.3984 15.1269 15.3321C14.9143 15.1898 14.7231 15.0026 14.544 14.8213L14.2438 14.5169L13.7748 13.9854L13.3669 13.5589C13.2513 13.4409 13.1229 13.3039 12.9854 13.2122C12.8791 13.1413 12.7673 13.0877 12.643 13.0571C12.5989 13.0463 12.5529 13.0323 12.5076 13.0432C12.4194 13.0643 12.3406 13.0862 12.2663 13.1407L12.2547 13.1494C11.9588 13.3686 11.8601 13.7622 11.7774 14.1016C11.7406 14.2521 11.7208 14.4204 11.7124 14.5751C11.6983 14.8361 11.7143 15.1012 11.5954 15.3434C11.5343 15.468 11.3531 15.5654 11.2251 15.6061L11.2113 15.6104L11.108 15.6383C10.9806 15.665 10.8447 15.6561 10.7149 15.6563L10.1694 15.6564C9.88106 15.6562 9.58475 15.6692 9.29756 15.6458C8.74881 15.6013 8.20225 15.4716 7.68456 15.2881C7.41619 15.1929 7.14338 15.0866 6.88963 14.9571C6.591 14.8048 6.29269 14.6213 6.01562 14.4327C5.80426 14.2888 5.61285 14.1244 5.41797 13.9599C5.22113 13.7939 5.03074 13.6312 4.85133 13.4452L4.60754 13.167C4.51461 13.0661 4.41097 12.9684 4.32512 12.8617L4.07836 12.5425L3.84717 12.2608C3.08715 11.2762 2.43532 10.2006 1.83321 9.11313L1.47427 8.47287L1.21816 7.962L1.04627 7.65506L0.755462 7.07425L0.620203 6.76631L0.395508 6.31519L0.273713 6.03516L0.0830075 5.61188C0.0619332 5.56028 0.0307658 5.49707 0.0220593 5.4425C0.0180788 5.41758 0.0140022 5.40125 0.00384649 5.37809L0 5.36953ZM0 5.10851C0.0377062 5.00856 0.134185 4.93637 0.229493 4.89356C0.325781 4.85027 0.451035 4.82637 0.555922 4.81813C0.746594 4.80313 0.945437 4.81387 1.13724 4.81351L2.20646 4.8084L2.68342 4.80289C2.76119 4.7991 2.83829 4.78246 2.91627 4.77809C3.07539 4.76914 3.24079 4.77215 3.40013 4.77703C3.47526 4.77929 3.54361 4.78832 3.61514 4.81117C3.69614 4.83707 3.76493 4.86382 3.84147 4.90059C3.95516 4.95523 4.07844 5.04766 4.14434 5.1568C4.27332 5.37035 4.35222 5.60414 4.45356 5.83051L4.99101 6.9555C5.24723 7.45819 5.54062 7.93725 5.84321 8.41269L5.99691 8.66337L6.38613 9.20219C6.44894 9.29794 6.53725 9.38588 6.61806 9.46675C6.76419 9.61319 6.89288 9.73425 7.07438 9.838C7.13619 9.87337 7.21538 9.84975 7.28025 9.88194C7.42663 9.84181 7.53194 9.772 7.60994 9.63869C7.7365 9.42225 7.77887 9.13181 7.81281 8.88675L7.85987 8.48294C7.87631 8.25169 7.86425 8.01238 7.86431 7.78013C7.8645 7.4635 7.87769 7.13944 7.85913 6.82362L7.83356 6.58156C7.8165 6.39125 7.79938 6.20426 7.749 6.01875C7.66575 5.71203 7.53763 5.47242 7.25306 5.31332C7.094 5.22438 6.89788 5.16312 6.71925 5.13465C6.67506 5.12757 6.63787 5.10762 6.598 5.08816C6.70837 4.80875 6.91094 4.62754 7.1875 4.51164C7.38544 4.42867 7.59544 4.39699 7.80569 4.36668L8.23669 4.31028C8.37056 4.29953 8.509 4.30601 8.64344 4.30488L9.29631 4.29809L10.0049 4.30613C10.1111 4.30778 10.2189 4.30258 10.3247 4.31176L10.6793 4.36035C10.8646 4.38879 11.0594 4.42242 11.2329 4.49578C11.4037 4.56797 11.5576 4.71578 11.6281 4.88769C11.6746 5.00098 11.6903 5.11902 11.7072 5.23926C11.7401 5.47172 11.7559 5.70262 11.7442 5.93742L11.7131 6.32694L11.7052 7.26244L11.6814 7.52931L11.6698 8.33081C11.6685 8.74331 11.6502 9.19087 11.8466 9.56662C11.9049 9.67837 11.9939 9.78975 12.1116 9.84213C12.1697 9.868 12.2367 9.86013 12.2957 9.8385C12.4118 9.79581 12.5265 9.70738 12.6207 9.62831C12.9496 9.353 13.1921 9.00831 13.4335 8.65862L13.6397 8.36869C14.0046 7.81331 14.3259 7.23525 14.6218 6.64069C14.699 6.48544 14.7841 6.33038 14.8509 6.17043L15.0226 5.77856L15.1426 5.47684C15.2294 5.24981 15.3357 4.97571 15.5739 4.87133C15.6099 4.85559 15.6494 4.84867 15.6871 4.83844C15.738 4.82465 15.7886 4.8184 15.8412 4.81594L16.6124 4.81453L18.1212 4.81465L18.9404 4.81398C19.1384 4.81285 19.3459 4.79441 19.541 4.8318C19.6905 4.86043 19.8733 4.93082 19.9596 5.06347C19.9883 5.10754 19.9859 5.15957 20 5.20844V0H0V5.10851ZM20 14.8671V5.39696C19.9699 5.51043 19.9579 5.62981 19.9193 5.74121C19.8886 5.82996 19.8473 5.91422 19.8099 6.00019C19.7757 6.07899 19.7468 6.15988 19.7053 6.23535L19.5896 6.43331C19.3933 6.78712 19.1774 7.13206 18.9461 7.46431L18.7151 7.77719L17.6294 9.22531L17.0451 10.0197C16.9606 10.1465 16.8697 10.277 16.8138 10.4196C16.7449 10.5954 16.7051 10.8132 16.7824 10.9949C16.9036 11.2796 17.1699 11.5036 17.3849 11.7174L17.8902 12.2207L18.0459 12.3633C18.0907 12.4074 18.1452 12.4411 18.1913 12.484L18.6279 12.9193C18.6722 12.9645 18.7053 13.0167 18.7478 13.0624L19.1048 13.4501C19.1617 13.5131 19.2083 13.5831 19.2616 13.6487C19.494 13.9347 19.7333 14.2416 19.8962 14.574C19.9425 14.6683 19.9709 14.7667 20 14.8671Z" fill="#4E64D5"/>
</g>
<defs>
<clipPath id="clip0_17_215">
<rect width="20" height="20" fill="white"/>
</clipPath>
</defs>
</svg>
