<svg stroke-miterlimit="10" viewBox="0 0 32 18.4" xmlns="http://www.w3.org/2000/svg" xmlns:vectornator="http://vectornator.io" clip-rule="evenodd" stroke-linecap="round" stroke-linejoin="round"><clipPath id="a"><path d="M0 0h32v18.4H0z"/></clipPath><g clip-path="url(#a)" vectornator:layerName="Untitled"><path d="M0 1.37V-6.8h32v32H0V1.37zm0 .42V25.2h32v-7.8c-.05.12-.1.23-.17.34-.17.25-.63.42-.92.47-.3.05-.6.04-.89.05l-.53.04h-2l-1 .01c-.36 0-.71.02-1.08-.04a2.43 2.43 0 0 1-.7-.26c-.17-.09-.35-.17-.5-.28a6.25 6.25 0 0 1-.94-.82l-.48-.48-.75-.85-.65-.69c-.19-.18-.4-.4-.61-.55-.17-.11-.35-.2-.55-.25-.07-.02-.15-.04-.22-.02a1 1 0 0 0-.38.16h-.02c-.48.36-.63.99-.77 1.53-.05.24-.09.51-.1.76-.02.42 0 .84-.19 1.23-.1.2-.39.35-.59.42h-.02l-.17.05c-.2.04-.42.03-.63.03h-.87c-.46 0-.93.02-1.4-.02-.87-.07-1.75-.28-2.57-.57a10.61 10.61 0 0 1-2.68-1.37c-.33-.23-.64-.5-.95-.75-.32-.27-.62-.53-.9-.83l-.4-.44c-.15-.16-.31-.32-.45-.5l-.4-.5-.36-.45a39.57 39.57 0 0 1-3.23-5.04l-.57-1.02-.41-.82-.28-.5-.46-.92-.22-.5-.36-.72-.2-.44-.3-.68C.1 2.1.05 2 .03 1.9a.37.37 0 0 0-.02-.1L0 1.78zm0-.42c.06-.16.21-.27.37-.34C.52.96.72.93.89.91c.3-.03.62 0 .93 0L3.53.88h.76l.38-.05h.77c.12 0 .23.02.34.06.13.04.24.08.37.14.18.09.38.24.48.41.2.34.33.72.5 1.08l.86 1.8c.4.8.88 1.57 1.36 2.33l.25.4.62.86c.1.16.24.3.37.43.23.23.44.42.73.6.1.05.22.01.33.06a.8.8 0 0 0 .53-.39c.2-.34.27-.8.32-1.2l.08-.65c.02-.37 0-.75 0-1.12 0-.5.02-1.03 0-1.53l-.05-.39c-.02-.3-.05-.6-.13-.9-.13-.5-.34-.87-.8-1.13a2.68 2.68 0 0 0-.85-.28l-.2-.08c.18-.45.5-.74.95-.92a4 4 0 0 1 .99-.23l.69-.1h.65l1.04-.01 1.14.01h.5l.58.09c.3.04.6.1.88.21.28.12.52.36.63.63.08.18.1.37.13.56.05.37.08.74.06 1.12l-.05.62-.01 1.5-.04.43-.02 1.28c0 .66-.03 1.38.28 1.98.1.18.24.35.43.44.1.04.2.03.3 0 .18-.08.36-.22.51-.34.53-.45.92-1 1.3-1.56l.33-.46c.59-.89 1.1-1.81 1.57-2.76.13-.25.26-.5.37-.76l.28-.62.19-.49c.14-.36.3-.8.69-.97l.18-.05c.08-.02.16-.03.25-.03h4.95c.32 0 .65-.04.97.02.23.05.53.16.67.37.04.07.04.16.06.23V-6.8H0v8.17zM32 17V1.84c-.05.18-.07.37-.13.55l-.17.41c-.06.13-.1.26-.17.38l-.19.31c-.31.57-.66 1.12-1.03 1.65l-.37.5-1.73 2.32-.94 1.27c-.13.2-.28.41-.37.64-.1.28-.17.63-.05.92.2.46.62.82.97 1.16l.8.8.25.23.24.2.7.7c.07.06.12.15.19.22l.57.62.25.32c.37.46.75.95 1.01 1.48.08.15.12.3.17.47z" fill="#4e64d5" vectornator:layerName="path"/></g></svg>